<svg id="Grupo_143138" data-name="Grupo 143138" xmlns="http://www.w3.org/2000/svg" xmlns:xlink="http://www.w3.org/1999/xlink" width="114.636" height="114.636" viewBox="0 0 114.636 114.636">
  <defs>
    <radialGradient id="radial-gradient" cx="0.076" cy="0.019" r="1.465" gradientTransform="translate(0.001)" gradientUnits="objectBoundingBox">
      <stop offset="0" stop-color="#f6f6f7"/>
      <stop offset="0.477" stop-color="#f9f9fa"/>
      <stop offset="0.715" stop-color="#fff"/>
    </radialGradient>
  </defs>
  <g id="Grupo_18423" data-name="Grupo 18423" transform="translate(0 0)">
    <g id="Grupo_18421" data-name="Grupo 18421">
      <g id="Grupo_18420" data-name="Grupo 18420">
        <g id="Grupo_18419" data-name="Grupo 18419">
          <path id="Trazado_40936" data-name="Trazado 40936" d="M309.259,2203.037a57.318,57.318,0,1,1-57.317-57.316A57.317,57.317,0,0,1,309.259,2203.037Z" transform="translate(-194.623 -2145.721)" fill="#fff"/>
        </g>
      </g>
    </g>
    <path id="Trazado_40937" data-name="Trazado 40937" d="M308.648,2202.372a57.316,57.316,0,1,0-57.317,57.319A57.091,57.091,0,0,0,308.648,2202.372Z" transform="translate(-194.013 -2145.056)" fill="url(#radial-gradient)"/>
    <path id="Trazado_40938" data-name="Trazado 40938" d="M289.672,2196.986a43.75,43.75,0,1,0-43.75,43.75A43.587,43.587,0,0,0,289.672,2196.986Z" transform="translate(-188.43 -2139.479)" fill="none" stroke="#00223d" stroke-miterlimit="10" stroke-width="4"/>
    <g id="Grupo_18422" data-name="Grupo 18422" transform="translate(10.154 32.18)">
      <path id="Trazado_40939" data-name="Trazado 40939" d="M299.231,2164.488a57.325,57.325,0,0,1-98.686,57.081,57.143,57.143,0,0,0,98.686-57.081Z" transform="translate(-200.545 -2164.488)" fill="#eceef0"/>
    </g>
  </g>
  <g id="dqqwB7" transform="translate(-5156.24 487.762)">
    <g id="Grupo_143114" data-name="Grupo 143114" transform="translate(5182.013 -448.931)">
      <path id="Trazado_184294" data-name="Trazado 184294" d="M5244.742-424.019h-8.333v6.067c.967,0,1.921,0,2.875,0,.74,0,1.482-.009,2.221.015a1.423,1.423,0,0,1,1.438,1.724,6.468,6.468,0,0,1-1.837,3.628,2.727,2.727,0,0,1-2.036.715q-8.685-.013-17.37,0l-31.254,0c-.69,0-1.383-.044-2.068.011a3,3,0,0,1-3.05-1.646,11.144,11.144,0,0,1-1.033-2.545c-.3-1.133.375-1.887,1.56-1.893,1.447-.008,2.9,0,4.342,0h.588v-6.056h-8.771v-16.567h8.817c0-.918,0-1.787,0-2.656,0-1.279.033-2.56-.022-3.837a1.7,1.7,0,0,1,1.873-1.862c1.632.019,3.264,0,4.9,0l28.479,0q4.14,0,8.279,0c1.473,0,2.042.576,2.042,2.054v6.258h8.364Zm-9.254-6.721-.009-.014.776.36,3.324-3.628,3.883,4.443v-9.68h-16.915v13.068l6.778-6.5Zm-4.229-12.636h-35.337v2.8h5.9v16.557h-5.893v2.8h35.337v-2.824H5225.3V-440.6h5.962Zm-30.721,4.105H5183.3v13.926h17.24Zm41.165,22.61h-5.15l-15.043,0c-.25,0-.457-.025-.6.3a2.374,2.374,0,0,1-2.362,1.488q-5,.005-9.995-.007a2.3,2.3,0,0,1-2.229-1.366.61.61,0,0,0-.663-.421q-9.768.014-19.536.007h-.633a1.692,1.692,0,0,0,.047.46c.351.773.68,1.559,1.09,2.3a1.609,1.609,0,0,0,1.542.77q11.585-.013,23.17-.007,13.806,0,27.612-.008a1.776,1.776,0,0,0,1.011-.207A4.739,4.739,0,0,0,5241.7-416.66Zm-47.12-27.99h38v4.044h2.51v-6.272c0-.75-.022-.772-.757-.772h-41.54c-.645,0-.7.059-.7.678q0,2.952,0,5.9c0,.146.015.293.023.457h2.468Zm-2.465,26.7h14.349c.632,0,.771.116.876.709a1.2,1.2,0,0,0,1.284,1.091c.724.006,1.447,0,2.17,0q3.836,0,7.673,0a1.243,1.243,0,0,0,1.361-1.009c.127-.711.228-.794.954-.794h14.279v-6.042h-2.523v4.014h-37.962v-4.027h-2.461Zm41.239-12.987-5.8,5.579h15.939c0-.707.006-1.378-.005-2.049a.536.536,0,0,0-.126-.313c-1.256-1.462-2.519-2.919-3.819-4.423l-3.121,3.489Z" transform="translate(-5182.013 448.931)" fill="#12263f"/>
      <path id="Trazado_184295" data-name="Trazado 184295" d="M5711.4-268.934l-.009-.014Z" transform="translate(-5657.927 287.126)" fill="#12263f"/>
      <path id="Trazado_184296" data-name="Trazado 184296" d="M5404.209-360.871c0-1.973.06-3.885-.017-5.792a3.4,3.4,0,0,1,2.643-3.7c2.3-.623,4.555-1.394,6.84-2.067a3.475,3.475,0,0,1,1.425-.13,1.587,1.587,0,0,1,1.392,1.56c.053.855.042,1.715.045,2.572.01,2.507,0,5.014.023,7.52a3.815,3.815,0,0,1-1.965,3.608,4.467,4.467,0,0,1-4.566.174,2.705,2.705,0,0,1-.932-3.849,4.663,4.663,0,0,1,5.774-1.824l.39.171v-5.82c-1.172.359-2.307.7-3.439,1.054-2.018.623-4.036,1.246-6.049,1.885a.458.458,0,0,0-.271.324c.015,2.2.017,4.4.1,6.6a3.224,3.224,0,0,1-1.145,2.727,4.584,4.584,0,0,1-4.181,1.065,2.789,2.789,0,0,1-1.625-4.615,4.664,4.664,0,0,1,2.82-1.713A4.367,4.367,0,0,1,5404.209-360.871Zm1.336-5.886,3.052-.957c2.094-.656,4.186-1.318,6.284-1.96.292-.089.435-.205.388-.519a4.233,4.233,0,0,1-.009-.453c-.027-.585-.338-.828-.9-.66-2.532.764-5.063,1.531-7.588,2.317A1.86,1.86,0,0,0,5405.545-366.757Zm6.582,8.926a2.988,2.988,0,0,0,3.131-2.8.829.829,0,0,0-.25-.547,3.3,3.3,0,0,0-4.843.9,1.44,1.44,0,0,0,.843,2.183A11.067,11.067,0,0,0,5412.127-357.831Zm-11.04,1.9a3.373,3.373,0,0,0,3.1-1.685,1.7,1.7,0,0,0-.935-2.238,3.435,3.435,0,0,0-3.93,1.832,1.361,1.361,0,0,0,.718,1.8A6.17,6.17,0,0,0,5401.087-355.936Z" transform="translate(-5376.138 380.295)" fill="#12263f"/>
      <path id="Trazado_184297" data-name="Trazado 184297" d="M5249.531-329.5c0-1.262,0-2.524,0-3.786a1.127,1.127,0,0,1,.591-1.181,1.194,1.194,0,0,1,1.339.294c1.537,1.28,3.083,2.55,4.623,3.827a1.011,1.011,0,0,1,0,1.708q-2.309,1.916-4.632,3.816a1.19,1.19,0,0,1-1.34.3c-.522-.249-.587-.727-.584-1.237.005-1.245,0-2.49,0-3.736Zm1.3,3.518,4.25-3.511-4.25-3.518Z" transform="translate(-5242.706 346.12)" fill="#12263f"/>
      <path id="Trazado_184298" data-name="Trazado 184298" d="M5642.642-338.512a2.3,2.3,0,0,1,2.336,2.422,2.316,2.316,0,0,1-2.412,2.241,2.308,2.308,0,0,1-2.258-2.4A2.293,2.293,0,0,1,5642.642-338.512Zm0,3.381a1.026,1.026,0,0,0,1.054-1.04,1.078,1.078,0,0,0-1.029-1.083,1.128,1.128,0,0,0-1.1,1.084A1.084,1.084,0,0,0,5642.644-335.131Z" transform="translate(-5594.022 349.664)" fill="#12263f"/>
    </g>
  </g>
</svg>
