<svg id="Grupo_143137" data-name="Grupo 143137" xmlns="http://www.w3.org/2000/svg" xmlns:xlink="http://www.w3.org/1999/xlink" width="114.636" height="114.636" viewBox="0 0 114.636 114.636">
  <defs>
    <radialGradient id="radial-gradient" cx="0.076" cy="0.019" r="1.465" gradientTransform="translate(0.001)" gradientUnits="objectBoundingBox">
      <stop offset="0" stop-color="#f6f6f7"/>
      <stop offset="0.477" stop-color="#f9f9fa"/>
      <stop offset="0.715" stop-color="#fff"/>
    </radialGradient>
  </defs>
  <g id="Grupo_18423" data-name="Grupo 18423" transform="translate(0 0)">
    <g id="Grupo_18421" data-name="Grupo 18421">
      <g id="Grupo_18420" data-name="Grupo 18420">
        <g id="Grupo_18419" data-name="Grupo 18419">
          <path id="Trazado_40936" data-name="Trazado 40936" d="M309.259,2203.037a57.318,57.318,0,1,1-57.317-57.316A57.317,57.317,0,0,1,309.259,2203.037Z" transform="translate(-194.623 -2145.721)" fill="#fff"/>
        </g>
      </g>
    </g>
    <path id="Trazado_40937" data-name="Trazado 40937" d="M308.648,2202.372a57.316,57.316,0,1,0-57.317,57.319A57.091,57.091,0,0,0,308.648,2202.372Z" transform="translate(-194.013 -2145.056)" fill="url(#radial-gradient)"/>
    <path id="Trazado_40938" data-name="Trazado 40938" d="M289.672,2196.986a43.75,43.75,0,1,0-43.75,43.75A43.587,43.587,0,0,0,289.672,2196.986Z" transform="translate(-188.43 -2139.479)" fill="none" stroke="#00223d" stroke-miterlimit="10" stroke-width="4"/>
    <g id="Grupo_18422" data-name="Grupo 18422" transform="translate(10.154 32.18)">
      <path id="Trazado_40939" data-name="Trazado 40939" d="M299.231,2164.488a57.325,57.325,0,0,1-98.686,57.081,57.143,57.143,0,0,0,98.686-57.081Z" transform="translate(-200.545 -2164.488)" fill="#eceef0"/>
    </g>
  </g>
  <g id="aYKeSg" transform="translate(-4898.389 833.665)">
    <g id="Grupo_143115" data-name="Grupo 143115" transform="translate(4930.748 -805.023)">
      <path id="Trazado_184299" data-name="Trazado 184299" d="M4962.287-671.734a7.534,7.534,0,0,0,.633,4.583.629.629,0,0,0,.671.42c.99-.022,1.98-.015,2.97-.007a1.543,1.543,0,0,1,1.628,1.507,1.564,1.564,0,0,1-1.529,1.613c-.219.018-.439.015-.66.015q-10.671,0-21.343-.009a2.775,2.775,0,0,1-1.21-.26,1.467,1.467,0,0,1-.682-1.7,1.486,1.486,0,0,1,1.484-1.161c1.008-.019,2.017-.021,3.025,0a.654.654,0,0,0,.715-.436,7.515,7.515,0,0,0,.62-4.541c-.207-.011-.4-.032-.6-.032q-7.866,0-15.733,0c-1.04,0-1.532-.457-1.532-1.428q0-17,.006-34c0-.183,0-.367,0-.55a1.253,1.253,0,0,1,1.379-1.358c1.375-.01,2.75,0,4.125,0h7.041a1.142,1.142,0,0,1,.487.03c.157.081.383.28.364.39a.771.771,0,0,1-.388.433c-.127.071-.323.022-.487.022H4932.5c-.83,0-.849.017-.849.813l0,33.94c0,.788.02.81.789.81h46.043c.751,0,.774-.019.774-.767q0-17.025,0-34.051c0-.7-.043-.744-.754-.744l-10.782,0a1.712,1.712,0,0,1-.6-.025c-.157-.062-.36-.249-.365-.387s.175-.34.324-.43a1.037,1.037,0,0,1,.486-.034q5.5,0,11,0c1.15,0,1.575.416,1.575,1.544q.006,17.19.008,34.381a1.258,1.258,0,0,1-1.436,1.41c-1.632.014-3.264,0-4.9,0h-11.526Zm-13.487,4.959h13.209a23.154,23.154,0,0,1-.6-2.389,24.838,24.838,0,0,1-.129-2.524h-11.751A8.977,8.977,0,0,1,4948.8-666.775Zm6.7.909v0h-10.782c-.768,0-1.108.2-1.127.665-.021.489.333.712,1.132.712q10.727,0,21.455,0c.2,0,.45.051.592-.046.218-.148.514-.414.5-.613-.015-.24-.288-.5-.507-.677-.113-.092-.354-.036-.536-.036Q4960.867-665.868,4955.5-665.867Z" transform="translate(-4930.748 719.641)" fill="#12263f" stroke="#12263f" stroke-width="1"/>
      <path id="Trazado_184300" data-name="Trazado 184300" d="M5067.6-668.33c0-1.12-.03-2.218.005-3.314a7.347,7.347,0,0,1,4.547-6.933,7.457,7.457,0,0,1,10.379,6.2c.086,1.331.013,2.672.013,3.946.094.086.117.125.147.132,1.733.427,2.256,1.1,2.256,2.9q0,5.113,0,10.226a2.378,2.378,0,0,1-2.577,2.559q-7.312,0-14.625,0a2.373,2.373,0,0,1-2.583-2.607c0-3.391.044-6.782-.02-10.171A2.6,2.6,0,0,1,5067.6-668.33Zm7.454,14.838v-.006q3.6,0,7.205,0c1.258,0,1.814-.556,1.814-1.8q0-5.115,0-10.23c0-1.319-.532-1.86-1.867-1.861q-7.177-.007-14.354-.007c-1.248,0-1.817.568-1.818,1.81q0,5.06,0,10.12c0,1.482.48,1.968,1.979,1.972C5070.359-653.488,5072.706-653.492,5075.052-653.492Zm3.987-14.815c0-1.1.018-2.178,0-3.254a3.964,3.964,0,0,0-3.972-3.882,3.97,3.97,0,0,0-3.905,3.894,11.244,11.244,0,0,1-.026,1.371c-.028.192-.281.35-.433.523-.146-.16-.418-.32-.418-.479a11.3,11.3,0,0,1,.136-2.457,4.78,4.78,0,0,1,5.189-3.7,4.819,4.819,0,0,1,4.309,4.877c0,.9-.011,1.8.013,2.694,0,.149.153.413.254.422.482.045.972.02,1.5.02,0-1.269.015-2.457,0-3.645a6.561,6.561,0,0,0-4.348-5.98,6.661,6.661,0,0,0-7.173,1.815c-2.073,2.292-1.661,5.053-1.665,7.785Z" transform="translate(-5050.353 693.054)" fill="#12263f" stroke="#12263f" stroke-width="1"/>
      <path id="Trazado_184301" data-name="Trazado 184301" d="M4980.124-416.225q-10.369,0-20.737,0c-.347,0-.838.121-.848-.424s.473-.446.827-.446q20.765,0,41.529,0c.364,0,.934-.183.925.446-.009.574-.548.418-.9.419Q4990.52-416.22,4980.124-416.225Z" transform="translate(-4955.481 459.8)" fill="#12263f" stroke="#12263f" stroke-width="1"/>
      <path id="Trazado_184302" data-name="Trazado 184302" d="M5052.369-771.025c0-1.575-.009-3.151.006-4.726a.512.512,0,0,0-.41-.585,2.441,2.441,0,0,1-1.606-2.743,2.459,2.459,0,0,1,2.438-2.043,2.479,2.479,0,0,1,2.434,1.987,2.445,2.445,0,0,1-1.554,2.777c-.389.141-.432.34-.432.679.008,3.041,0,6.082,0,9.122,0,.128.045.285-.012.379a4.291,4.291,0,0,1-.443.532c-.14-.181-.395-.358-.4-.544-.04-1.116-.022-2.234-.023-3.352Q5052.368-770.283,5052.369-771.025Zm.444-6.039a1.618,1.618,0,0,0,1.574-1.581,1.611,1.611,0,0,0-1.6-1.605,1.635,1.635,0,0,0-1.58,1.581A1.627,1.627,0,0,0,5052.813-777.063Z" transform="translate(-5037.16 783.752)" fill="#12263f" stroke="#12263f" stroke-width="1"/>
      <path id="Trazado_184303" data-name="Trazado 184303" d="M5217.112-771.028c0-1.5-.02-3,.012-4.506a.772.772,0,0,0-.569-.876,2.413,2.413,0,0,1-1.42-2.748,2.5,2.5,0,0,1,2.191-1.942,2.471,2.471,0,0,1,2.554,1.6,2.477,2.477,0,0,1-.889,2.878.776.776,0,0,1-.283.163c-.735.111-.729.623-.726,1.2.019,2.894.009,5.789.008,8.683a1.225,1.225,0,0,1-.02.489,2.167,2.167,0,0,1-.387.452c-.154-.148-.4-.275-.443-.451a4.341,4.341,0,0,1-.028-.984Q5217.112-769.049,5217.112-771.028Zm2.042-7.635a1.623,1.623,0,0,0-1.581-1.577,1.622,1.622,0,0,0-1.6,1.617,1.615,1.615,0,0,0,1.579,1.573A1.621,1.621,0,0,0,5219.154-778.663Z" transform="translate(-5183.801 783.74)" fill="#12263f" stroke="#12263f" stroke-width="1"/>
      <path id="Trazado_184304" data-name="Trazado 184304" d="M5105.024-796.511c0-1.045-.008-2.09,0-3.135a.512.512,0,0,0-.4-.593,2.445,2.445,0,0,1-1.586-2.857,2.5,2.5,0,0,1,2.433-1.927,2.473,2.473,0,0,1,2.429,2.06,2.447,2.447,0,0,1-1.628,2.732c-.341.121-.392.293-.391.6.009,2.035,0,4.07,0,6.105,0,.147.047.318-.013.434a2.9,2.9,0,0,1-.4.493c-.153-.167-.43-.328-.438-.5-.043-.933-.021-1.869-.021-2.8Zm.43-7.636a1.612,1.612,0,0,0-1.574,1.635,1.593,1.593,0,0,0,1.6,1.549,1.612,1.612,0,0,0,1.579-1.629A1.623,1.623,0,0,0,5105.454-804.147Z" transform="translate(-5084.038 805.023)" fill="#12263f" stroke="#12263f" stroke-width="1"/>
      <path id="Trazado_184305" data-name="Trazado 184305" d="M5164.479-796.446c0-1.008-.018-2.017.008-3.024a.68.68,0,0,0-.513-.8,2.4,2.4,0,0,1-1.523-2.641,2.5,2.5,0,0,1,2.231-2.093,2.457,2.457,0,0,1,2.593,1.776,2.432,2.432,0,0,1-1.45,2.963c-.423.151-.493.36-.489.752.018,2.016.008,4.032.008,6.048,0,.128.047.289-.012.378a3.772,3.772,0,0,1-.463.489c-.13-.165-.369-.328-.375-.5-.034-1.117-.018-2.235-.018-3.353Zm2.011-6.064a1.622,1.622,0,0,0-1.588-1.625,1.65,1.65,0,0,0-1.6,1.566,1.628,1.628,0,0,0,1.6,1.618A1.6,1.6,0,0,0,5166.49-802.51Z" transform="translate(-5136.929 805.01)" fill="#12263f" stroke="#12263f" stroke-width="1"/>
      <path id="Trazado_184306" data-name="Trazado 184306" d="M5263.465-562.113q-2.252,0-4.5,0c-.311,0-.632-.013-.645-.412-.015-.435.321-.464.654-.464q4.5,0,9.006,0c.329,0,.622.077.623.451,0,.393-.317.428-.632.427Q5265.716-562.117,5263.465-562.113Z" transform="translate(-5222.273 589.621)" fill="#12263f" stroke="#12263f" stroke-width="1"/>
      <path id="Trazado_184307" data-name="Trazado 184307" d="M4963.8-520.3c-1.484,0-2.968,0-4.451,0-.331,0-.679-.008-.683-.432s.341-.443.675-.443q4.479,0,8.958,0c.332,0,.666.018.651.461-.014.407-.336.413-.644.412Q4966.051-520.3,4963.8-520.3Z" transform="translate(-4955.592 552.403)" fill="#12263f" stroke="#12263f" stroke-width="1"/>
      <path id="Trazado_184308" data-name="Trazado 184308" d="M5263.438-521.173c1.5,0,3,0,4.506,0,.339,0,.668.038.66.459-.007.39-.327.42-.642.419q-4.506-.005-9.011,0c-.319,0-.623-.031-.63-.429s.291-.448.613-.447Q5261.185-521.169,5263.438-521.173Z" transform="translate(-5222.277 552.407)" fill="#12263f" stroke="#12263f" stroke-width="1"/>
      <path id="Trazado_184309" data-name="Trazado 184309" d="M5263.541-479.377q2.224,0,4.448,0c.331,0,.676.016.656.453-.017.375-.328.43-.646.43q-4.475,0-8.95,0c-.325,0-.674-.014-.681-.443-.007-.448.351-.433.672-.432q2.251,0,4.5,0Z" transform="translate(-5222.318 515.209)" fill="#12263f" stroke="#12263f" stroke-width="1"/>
      <path id="Trazado_184310" data-name="Trazado 184310" d="M4963.813-562.179c-1.483,0-2.966,0-4.449,0-.326,0-.7,0-.7-.415-.008-.443.365-.464.718-.464q4.422.006,8.842,0c.073,0,.169-.029.216.007.182.137.347.294.519.444-.177.142-.349.4-.532.405-1.023.04-2.049.019-3.075.019Z" transform="translate(-4955.591 589.688)" fill="#12263f" stroke="#12263f" stroke-width="1"/>
      <path id="Trazado_184311" data-name="Trazado 184311" d="M4963.847-479.353q2.224,0,4.448,0c.3,0,.641,0,.653.4.013.42-.314.476-.653.475q-4.5,0-9.006,0c-.332,0-.62-.08-.627-.448-.007-.392.31-.432.627-.431C4960.808-479.352,4962.328-479.354,4963.847-479.353Z" transform="translate(-4955.591 515.188)" fill="#12263f" stroke="#12263f" stroke-width="1"/>
      <path id="Trazado_184312" data-name="Trazado 184312" d="M5282.221-603.9h-3.4c-.329,0-.669-.022-.665-.458s.355-.442.677-.442q3.378,0,6.755,0c.34,0,.67.055.671.463,0,.429-.362.438-.684.439Q5283.9-603.893,5282.221-603.9Z" transform="translate(-5239.927 626.829)" fill="#12263f" stroke="#12263f" stroke-width="1"/>
      <path id="Trazado_184313" data-name="Trazado 184313" d="M4962.781-603.889q-1.7,0-3.4,0c-.33,0-.682-.024-.667-.451.014-.4.348-.448.687-.448,2.251.005,4.5,0,6.753.011a1.022,1.022,0,0,1,.586.2.447.447,0,0,1,.014.442.78.78,0,0,1-.511.228C4965.087-603.88,4963.934-603.89,4962.781-603.889Z" transform="translate(-4955.634 626.818)" fill="#12263f" stroke="#12263f" stroke-width="1"/>
      <path id="Trazado_184314" data-name="Trazado 184314" d="M4961.788-646.291c.822,0,1.644.006,2.466,0,.335,0,.644.1.583.456-.027.166-.375.393-.581.4-1.644.032-3.288.013-4.932.019-.326,0-.623-.064-.627-.439s.3-.438.624-.435c.822.008,1.644,0,2.466,0Z" transform="translate(-4955.623 663.761)" fill="#12263f" stroke="#12263f" stroke-width="1"/>
      <path id="Trazado_184315" data-name="Trazado 184315" d="M5299.013-646.293c.843,0,1.688-.024,2.528.018a.7.7,0,0,1,.533.381c.059.322-.208.464-.531.463q-2.529,0-5.059,0c-.311,0-.6-.119-.524-.46a.7.7,0,0,1,.525-.386c.841-.042,1.685-.018,2.528-.018Z" transform="translate(-5255.765 663.766)" fill="#12263f" stroke="#12263f" stroke-width="1"/>
      <path id="Trazado_184316" data-name="Trazado 184316" d="M5132.643-529.309a7.3,7.3,0,0,0-.549-1.038,2.651,2.651,0,0,1,.28-3.46,2.619,2.619,0,0,1,3.461-.137,2.518,2.518,0,0,1,.524,3.4,2.628,2.628,0,0,0-.509,1.658,1.587,1.587,0,0,1-1.35,1.568,1.626,1.626,0,0,1-1.842-.954,5.2,5.2,0,0,1-.2-.956Zm.736-.322c0,.269-.008.435,0,.6a.815.815,0,0,0,.8.865.816.816,0,0,0,.8-.863,5.554,5.554,0,0,0,0-.6,1.242,1.242,0,0,1,.426-1.114,1.666,1.666,0,0,0,.007-2.372,1.711,1.711,0,0,0-2.383-.08,1.645,1.645,0,0,0-.109,2.4A1.283,1.283,0,0,1,5133.379-529.632Z" transform="translate(-5109.482 564.294)" fill="#12263f" stroke="#12263f" stroke-width="1"/>
    </g>
  </g>
</svg>
