<svg id="Grupo_143139" data-name="Grupo 143139" xmlns="http://www.w3.org/2000/svg" xmlns:xlink="http://www.w3.org/1999/xlink" width="114.636" height="114.636" viewBox="0 0 114.636 114.636">
  <defs>
    <radialGradient id="radial-gradient" cx="0.076" cy="0.019" r="1.465" gradientTransform="translate(0.001)" gradientUnits="objectBoundingBox">
      <stop offset="0" stop-color="#f6f6f7"/>
      <stop offset="0.477" stop-color="#f9f9fa"/>
      <stop offset="0.715" stop-color="#fff"/>
    </radialGradient>
  </defs>
  <g id="Grupo_18423" data-name="Grupo 18423" transform="translate(0 0)">
    <g id="Grupo_18421" data-name="Grupo 18421">
      <g id="Grupo_18420" data-name="Grupo 18420">
        <g id="Grupo_18419" data-name="Grupo 18419">
          <path id="Trazado_40936" data-name="Trazado 40936" d="M309.259,2203.037a57.318,57.318,0,1,1-57.317-57.316A57.317,57.317,0,0,1,309.259,2203.037Z" transform="translate(-194.623 -2145.721)" fill="#fff"/>
        </g>
      </g>
    </g>
    <path id="Trazado_40937" data-name="Trazado 40937" d="M308.648,2202.372a57.316,57.316,0,1,0-57.317,57.319A57.091,57.091,0,0,0,308.648,2202.372Z" transform="translate(-194.013 -2145.056)" fill="url(#radial-gradient)"/>
    <path id="Trazado_40938" data-name="Trazado 40938" d="M289.672,2196.986a43.75,43.75,0,1,0-43.75,43.75A43.587,43.587,0,0,0,289.672,2196.986Z" transform="translate(-188.43 -2139.479)" fill="none" stroke="#00223d" stroke-miterlimit="10" stroke-width="4"/>
    <g id="Grupo_18422" data-name="Grupo 18422" transform="translate(10.154 32.18)">
      <path id="Trazado_40939" data-name="Trazado 40939" d="M299.231,2164.488a57.325,57.325,0,0,1-98.686,57.081,57.143,57.143,0,0,0,98.686-57.081Z" transform="translate(-200.545 -2164.488)" fill="#eceef0"/>
    </g>
  </g>
  <g id="V2DuTg.tif" transform="translate(-5019.254 1.971)">
    <g id="Grupo_143113" data-name="Grupo 143113" transform="translate(5053.827 27.836)">
      <path id="Trazado_184289" data-name="Trazado 184289" d="M5086.583,64.329a2.837,2.837,0,0,0,2.593,1.962c.41.021.822-.008,1.231.016a1.921,1.921,0,0,1,1.836,1.756,14.485,14.485,0,0,1-.088,2.944,3.8,3.8,0,0,1-3.774,3.171c-1.888.025-3.777,0-5.666.008-.966,0-1.291.326-1.292,1.293,0,2.423,0,4.845,0,7.268a2.02,2.02,0,0,1-2.268,2.281q-8.591,0-17.182,0a2.008,2.008,0,0,1-2.232-2.25c0-5.564-.019-11.128.009-16.691a7.95,7.95,0,0,0-1.7-5.019,20.695,20.695,0,1,1,36.886-15.927,14.236,14.236,0,0,1,.238,2.2,4.882,4.882,0,0,0,.521,2.056c1.065,2.285,2.028,4.621,3.166,6.868a2.1,2.1,0,0,1-2.062,3.15c-1.123-.08-2.257-.009-3.386,0-.036,0-.071.03-.165.073,0,.872,0,1.77,0,2.668a1.989,1.989,0,0,1-2.185,2.174C5089.59,64.333,5088.115,64.329,5086.583,64.329Zm3.708,3.936c-.452,0-.838.015-1.223,0a4.951,4.951,0,0,1-4.677-4.563c-.061-.938.3-1.338,1.233-1.341,1.663,0,3.326,0,4.989,0h.663c0-1.021-.067-1.952.026-2.865a2.522,2.522,0,0,1,.6-1.468,2.474,2.474,0,0,1,1.48-.573c1.234-.08,2.476-.026,3.781-.026-.116-.283-.186-.473-.27-.657-.876-1.921-1.719-3.859-2.644-5.756a11.656,11.656,0,0,1-1.132-4.218A18.552,18.552,0,0,0,5079.463,30.5c-1.267-.339-2.587-.478-3.925-.716v6.984a11.708,11.708,0,0,1,7.592,3.678,11.821,11.821,0,0,1,1.007,15,11.756,11.756,0,0,1-8.625,4.9c0,.867-.031,1.688.01,2.5a1.82,1.82,0,0,1-.619,1.525c-.982.933-1.912,1.921-2.888,2.861a1.34,1.34,0,0,0-.457,1.066c.017,4.723.009,9.446.009,14.169,0,.178.019.357.028.539h1.941V81.994c0-1.429.251-1.9,1-1.888.724.013.969.485.969,1.861v1.053h3.939v-.7q0-3.45,0-6.9a2.966,2.966,0,0,1,3.181-3.2c1.848,0,3.7,0,5.543-.006a1.974,1.974,0,0,0,2.113-2.123C5090.3,69.513,5090.291,68.939,5090.291,68.265Zm-20.7,14.779v-.782c0-4.847.009-9.693-.011-14.54a1.861,1.861,0,0,1,.615-1.464c1.022-.98,2.013-1.994,3.008-3a.925.925,0,0,0,.313-.492c.033-.793.015-1.588.015-2.374A11.958,11.958,0,0,1,5062.7,49.3a11.875,11.875,0,0,1,10.8-12.542V29.867a18.172,18.172,0,0,0-7.794,2.17,18.7,18.7,0,0,0-6.093,27.818,10.075,10.075,0,0,1,2.114,6.343c-.036,5.36-.013,10.72-.014,16.08,0,.241,0,.481,0,.742h3.942c0-.609-.006-1.181,0-1.752.01-.723.39-1.165.988-1.162s.972.442.982,1.17c.009.586,0,1.172,0,1.768Zm4.961-24.631a9.856,9.856,0,1,0-9.887-9.855A9.88,9.88,0,0,0,5074.557,58.414Z" transform="translate(-5053.826 -27.836)" fill="#12263f"/>
      <path id="Trazado_184290" data-name="Trazado 184290" d="M5434.624,325.485c-1.4,0-2.792,0-4.188,0-.777,0-1.228-.37-1.228-.984s.449-.984,1.226-.985q4.189,0,8.376,0c.778,0,1.228.369,1.229.983s-.453.983-1.228.986C5437.416,325.488,5436.02,325.485,5434.624,325.485Z" transform="translate(-5382.879 -287.021)" fill="#12263f"/>
      <path id="Trazado_184291" data-name="Trazado 184291" d="M5443.562,359.351a5.218,5.218,0,0,1,.591.259q1.945,1.11,3.88,2.239c.663.388.853.947.526,1.474-.312.506-.863.6-1.5.234q-2-1.141-3.987-2.3a.963.963,0,0,1-.548-1.171A1.012,1.012,0,0,1,5443.562,359.351Z" transform="translate(-5394.508 -318.436)" fill="#12263f"/>
      <path id="Trazado_184292" data-name="Trazado 184292" d="M5448.739,269.018a2.119,2.119,0,0,1-.521.641c-1.384.841-2.79,1.647-4.2,2.441a.967.967,0,0,1-1.381-.362.979.979,0,0,1,.447-1.359c1.361-.8,2.726-1.6,4.1-2.368A1.015,1.015,0,0,1,5448.739,269.018Z" transform="translate(-5394.54 -238.229)" fill="#12263f"/>
      <path id="Trazado_184293" data-name="Trazado 184293" d="M5178.48,170.091l4.245-4.945c.321-.374.632-.756.963-1.119a.985.985,0,1,1,1.483,1.286q-2.889,3.4-5.8,6.777a.975.975,0,0,1-1.6.041q-1.906-1.879-3.786-3.786a.984.984,0,1,1,1.389-1.386C5176.411,167.982,5177.426,169.025,5178.48,170.091Z" transform="translate(-5158.842 -146.861)" fill="#12263f"/>
    </g>
  </g>
</svg>
