<svg xmlns="http://www.w3.org/2000/svg" width="55.03" height="58.399" viewBox="0 0 55.03 58.399">
  <g id="Grupo_143176" data-name="Grupo 143176" transform="translate(-200.667 -2206.293)">
    <g id="Rectángulo_37706" data-name="Rectángulo 37706" transform="translate(200.667 2206.293)" fill="#fff" stroke="#afafaf" stroke-width="1">
      <rect width="55.03" height="58.399" rx="10" stroke="none"/>
      <rect x="0.5" y="0.5" width="54.03" height="57.399" rx="9.5" fill="none"/>
    </g>
    <g id="_2BbEbM.tif" data-name="2BbEbM.tif" transform="translate(610.638 484.146)">
      <g id="Grupo_143028" data-name="Grupo 143028" transform="translate(-396.971 1729.905)">
        <path id="Trazado_184048" data-name="Trazado 184048" d="M-396.6,1771.312a1.013,1.013,0,0,1-.37-.871c.012-3.7.006-7.395.008-11.092a2.708,2.708,0,0,1,2.936-2.936c2.066-.008,4.131,0,6.2,0h.544v-1.862h-.994q-1.506,0-3.011,0a2.7,2.7,0,0,1-2.925-2.6c-.007-.057-.018-.114-.037-.231-.615,0-1.236,0-1.856,0-.671,0-.854-.186-.854-.856q0-3.864,0-7.729c0-.708.159-.862.881-.865.6,0,1.191,0,1.817,0,.029-.175.057-.326.08-.478a2.679,2.679,0,0,1,2.7-2.363c2.284-.011,4.568,0,6.852,0h.519c0-.771.015-1.51-.015-2.246,0-.12-.192-.259-.325-.344a3.746,3.746,0,0,1-1.681-3.88,3.717,3.717,0,0,1,2.943-2.976,3.745,3.745,0,0,1,4.215,2.261,3.725,3.725,0,0,1-1.448,4.558.675.675,0,0,0-.38.685c.029.624.008,1.25.008,1.943h7.021a2.735,2.735,0,0,1,3.085,2.668,1.7,1.7,0,0,0,.051.177c.6,0,1.2,0,1.808,0,.723,0,.883.157.883.863q0,3.865,0,7.729c0,.671-.184.855-.853.858-.609,0-1.218,0-1.851,0-.03.182-.057.335-.079.489a2.662,2.662,0,0,1-2.671,2.336c-1.395.012-2.789,0-4.217,0v1.863h.492c2.095,0,4.19-.008,6.284,0a2.7,2.7,0,0,1,2.836,2.154,3.519,3.519,0,0,1,.055.737c0,3.712,0,7.424.01,11.135a1.019,1.019,0,0,1-.37.871Zm14.1-17.986h8.86a1.516,1.516,0,0,0,1.726-1.707q0-4.629,0-9.258a1.524,1.524,0,0,0-1.726-1.712h-17.632a1.523,1.523,0,0,0-1.725,1.712q0,4.629,0,9.258a1.514,1.514,0,0,0,1.725,1.707Zm13.328,16.745v-.463q0-5.131,0-10.261a1.51,1.51,0,0,0-1.719-1.711q-11.564,0-23.128,0a1.508,1.508,0,0,0-1.719,1.71q0,5.131,0,10.261v.449h4.815c0-1.822,0-3.611,0-5.4,0-.636.2-.839.831-.84q7.637,0,15.273,0c.634,0,.832.2.833.838q0,2.468,0,4.934v.483Zm-6.05-5h-14.452v4.987h14.452Zm-4.7-31.418a2.537,2.537,0,0,0-2.525-2.527,2.537,2.537,0,0,0-2.537,2.515,2.543,2.543,0,0,0,2.548,2.551A2.538,2.538,0,0,0-379.927,1733.653Zm-6.079,20.915v1.806h7.1v-1.806Zm-9.706-11.055v6.957h1.459v-6.957Zm26.5,6.957v-6.941h-1.459v6.941Zm-12.81-11.066v-1.977h-.852c-.008.127-.02.24-.02.353,0,.535,0,1.07,0,1.624Z" transform="translate(396.971 -1729.906)" fill="#12263f"/>
        <path id="Trazado_184049" data-name="Trazado 184049" d="M-193.535,1878.273a2.7,2.7,0,0,1,2.716,2.668,2.715,2.715,0,0,1-2.694,2.743,2.721,2.721,0,0,1-2.716-2.678A2.7,2.7,0,0,1-193.535,1878.273Zm0,1.227a1.468,1.468,0,0,0-1.474,1.459,1.487,1.487,0,0,0,1.491,1.5,1.485,1.485,0,0,0,1.474-1.468A1.469,1.469,0,0,0-193.533,1879.5Z" transform="translate(213.8 -1865.287)" fill="#12263f"/>
        <path id="Trazado_184050" data-name="Trazado 184050" d="M-325.2,1878.275a2.7,2.7,0,0,1,2.7,2.68,2.721,2.721,0,0,1-2.708,2.73,2.718,2.718,0,0,1-2.7-2.734A2.7,2.7,0,0,1-325.2,1878.275Zm.005,1.228a1.468,1.468,0,0,0-1.489,1.444,1.491,1.491,0,0,0,1.475,1.513,1.493,1.493,0,0,0,1.49-1.455A1.469,1.469,0,0,0-325.191,1879.5Z" transform="translate(333.949 -1865.289)" fill="#12263f"/>
        <path id="Trazado_184051" data-name="Trazado 184051" d="M-275.145,1962.98c1.135,0,2.269,0,3.4,0,.518,0,.788.216.787.606s-.273.612-.789.613q-3.447.007-6.894,0c-.362,0-.672-.093-.75-.509s.2-.707.709-.71C-277.5,1962.975-276.324,1962.98-275.145,1962.98Z" transform="translate(289.693 -1942.578)" fill="#12263f"/>
        <path id="Trazado_184052" data-name="Trazado 184052" d="M-123.92,2058.481a1.636,1.636,0,0,1-1.656,1.656,1.662,1.662,0,0,1-1.655-1.625,1.664,1.664,0,0,1,1.646-1.677A1.634,1.634,0,0,1-123.92,2058.481Zm-1.159.083v-.2c-.174-.1-.358-.294-.518-.275a.586.586,0,0,0-.384.406.349.349,0,0,0,.44.4C-125.372,2058.855-125.232,2058.678-125.079,2058.564Z" transform="translate(150.84 -2028.219)" fill="#12263f"/>
        <path id="Trazado_184053" data-name="Trazado 184053" d="M-372.915,2058.4a1.638,1.638,0,0,1,1.676-1.59,1.664,1.664,0,0,1,1.633,1.691,1.656,1.656,0,0,1-1.711,1.609A1.633,1.633,0,0,1-372.915,2058.4Zm2.142.177.006-.2c-.169-.113-.341-.316-.507-.311a.545.545,0,0,0-.387.383.546.546,0,0,0,.362.407C-371.133,2058.871-370.949,2058.678-370.773,2058.576Z" transform="translate(375.021 -2028.195)" fill="#12263f"/>
      </g>
    </g>
  </g>
</svg>
