<svg xmlns="http://www.w3.org/2000/svg" width="55.03" height="58.399" viewBox="0 0 55.03 58.399">
  <g id="Grupo_143177" data-name="Grupo 143177" transform="translate(-230.5 -1714.863)">
    <g id="Rectángulo_37706" data-name="Rectángulo 37706" transform="translate(230.5 1714.863)" fill="#fff" stroke="#afafaf" stroke-width="1">
      <rect width="55.03" height="58.399" rx="10" stroke="none"/>
      <rect x="0.5" y="0.5" width="54.03" height="57.399" rx="9.5" fill="none"/>
    </g>
    <g id="Hi6H32.tif" transform="translate(-3996.047 1220.08)">
      <g id="Grupo_143033" data-name="Grupo 143033" transform="translate(4236.086 503.735)">
        <path id="Trazado_184074" data-name="Trazado 184074" d="M4479.5,510.746c-.432.416-.858.839-1.3,1.246a1.231,1.231,0,0,0-.036,1.6c.311.3.617.6.934.888a.694.694,0,0,1,.187.871c-.272.613-.547,1.224-.816,1.837a.652.652,0,0,1-.7.426,7.075,7.075,0,0,1-.922-.071,1.266,1.266,0,0,0-1.348.46.816.816,0,0,0-.255.631c.035.428.037.858.051,1.287a.7.7,0,0,1-.494.743q-.94.352-1.875.721a.674.674,0,0,1-.826-.222,9.894,9.894,0,0,1-.674-.8,1.115,1.115,0,0,0-1.051-.508.935.935,0,0,0-.8.333c-.261.322-.57.605-.855.908a.665.665,0,0,1-.808.161c-.627-.271-1.249-.556-1.874-.832a.652.652,0,0,1-.415-.707c.035-.482.077-.963.1-1.446a1.333,1.333,0,0,0-1.05-1.063c-.429.011-.858.025-1.288.047a.749.749,0,0,1-.832-.542c-.217-.605-.455-1.2-.693-1.8a.69.69,0,0,1,.222-.861,5.727,5.727,0,0,1,.678-.568,1.242,1.242,0,0,0,.608-1.361.857.857,0,0,0-.191-.447c-.312-.332-.648-.643-.986-.95a.71.71,0,0,1-.192-.9c.271-.6.54-1.2.8-1.8a.666.666,0,0,1,.729-.442c.455.035.91.073,1.365.1a1.265,1.265,0,0,0,1.133-1.1c-.012-.416-.024-.832-.046-1.248a.748.748,0,0,1,.549-.826c.652-.24,1.29-.514,1.935-.774h.322c.424.442.854.878,1.27,1.327a1.272,1.272,0,0,0,1.546.04c.307-.32.618-.634.915-.962a.708.708,0,0,1,.9-.179c.586.265,1.172.528,1.763.779a.7.7,0,0,1,.468.794c-.041.427-.053.857-.1,1.283a.841.841,0,0,0,.23.643,1.207,1.207,0,0,0,1.279.518,5.2,5.2,0,0,1,.8-.036c.52-.01.685.1.878.586l.759,1.895Zm-15.678-1.851c-.131.3-.237.573-.375.832-.114.213-.109.377.1.511a2.441,2.441,0,0,1,1.086,2.773c-.013.065.012.142-.014.2a2.234,2.234,0,0,1-.312.618,5.691,5.691,0,0,1-.85.737.387.387,0,0,0-.133.577,1,1,0,0,1,.119.3c.077.449.341.525.767.508,1.543-.064,1.111-.171,2.187.867a1.856,1.856,0,0,1,.621,1.707c-.113.928-.073.94.81,1.279a.467.467,0,0,0,.4-.076c.307-.279.569-.608.875-.888a.949.949,0,0,1,.518-.26c1.174-.079,2.328-.077,2.977,1.181a.53.53,0,0,0,.131.152c.048.04.124.1.163.091a4.916,4.916,0,0,0,1.032-.428c.1-.067.077-.4.04-.6a1.9,1.9,0,0,1,.853-2.081c.165-.112.275-.31.446-.4a1.822,1.822,0,0,1,.752-.269,13.723,13.723,0,0,1,1.436.083,4.338,4.338,0,0,1,.266-.57c.258-.394.163-.652-.181-.975-1.117-1.05-.907-.6-.921-2.205a1.775,1.775,0,0,1,.762-1.567c.782-.6.765-.632.333-1.522a.44.44,0,0,0-.321-.2c-.388-.014-.783.059-1.165.013a1.556,1.556,0,0,1-.771-.325,6.155,6.155,0,0,1-.94-.991,1.354,1.354,0,0,1-.26-.715c-.021-.4.066-.8.067-1.2a.47.47,0,0,0-.208-.352c-.862-.439-.865-.432-1.542.272a3.159,3.159,0,0,1-.28.288c-.164.132-.34.351-.513.353-1.07.012-2.241.286-2.915-.946a1.613,1.613,0,0,0-.289-.334c-.053-.053-.144-.136-.188-.121a4.754,4.754,0,0,0-1.032.428c-.1.067-.071.4-.042.6a1.839,1.839,0,0,1-.763,2c-.21.137-.353.379-.564.512a1.434,1.434,0,0,1-.683.245C4464.822,509,4464.34,508.931,4463.824,508.895Z" transform="translate(-4443.568 -503.735)" fill="#12263f"/>
        <path id="Trazado_184075" data-name="Trazado 184075" d="M4245.987,595.223l1.366-3.2h-1.832q-3.021,0-6.042,0a3.226,3.226,0,0,1-3.392-3.388q0-9.829,0-19.659a3.219,3.219,0,0,1,3.357-3.381q6.828-.005,13.655,0h.371v1.289h-13.917a1.956,1.956,0,0,0-2.176,2.159q0,8.037,0,16.074v.431H4268.3v-7.683h1.3v.416q0,5.156,0,10.313a3.233,3.233,0,0,1-3.431,3.431q-3.665,0-7.331,0h-.5l1.377,3.223c.9,0,1.785,0,2.67,0a1.937,1.937,0,1,1,.006,3.866q-9.546,0-19.092,0a1.937,1.937,0,1,1,0-3.866c.859,0,1.718,0,2.578-.005A.643.643,0,0,0,4245.987,595.223Zm-8.611-8.338c0,.593,0,1.142,0,1.692a1.957,1.957,0,0,0,2.175,2.161h13.857q6.426,0,12.851,0a1.875,1.875,0,0,0,2.007-1.6,18.99,18.99,0,0,0,.018-2.252Zm10.015,8.338H4258.3c-.442-1.035-.863-2.033-1.3-3.023a.4.4,0,0,0-.306-.166q-3.845-.014-7.69,0a.4.4,0,0,0-.307.165C4248.254,593.189,4247.833,594.188,4247.391,595.223Zm5.414,2.606h9.385a2.236,2.236,0,0,0,.4-.011.639.639,0,0,0,0-1.268,2.024,2.024,0,0,0-.362-.01h-18.771a2,2,0,0,0-.362.01.64.64,0,0,0,0,1.268,2.258,2.258,0,0,0,.4.01Z" transform="translate(-4236.086 -560.601)" fill="#12263f"/>
        <path id="Trazado_184076" data-name="Trazado 184076" d="M4308.172,782.645V781.4h19.285v1.242Z" transform="translate(-4302.351 -758.982)" fill="#12263f"/>
        <path id="Trazado_184077" data-name="Trazado 184077" d="M4324.4,749.558V750.8h-16.062v-1.242Z" transform="translate(-4302.499 -729.708)" fill="#12263f"/>
        <path id="Trazado_184078" data-name="Trazado 184078" d="M4322.467,717.632v1.241h-14.128v-1.241Z" transform="translate(-4302.504 -700.36)" fill="#12263f"/>
        <path id="Trazado_184079" data-name="Trazado 184079" d="M4320.437,685.591v1.244h-12.206v-1.244Z" transform="translate(-4302.405 -670.906)" fill="#12263f"/>
        <path id="Trazado_184080" data-name="Trazado 184080" d="M4277.329,610.417l1.56,1.439-.932.921c-.651-.645-1.308-1.276-1.94-1.932a.584.584,0,0,1,.017-.87c.624-.645,1.266-1.274,1.919-1.928l.854.944Z" transform="translate(-4272.621 -599.624)" fill="#12263f"/>
        <path id="Trazado_184081" data-name="Trazado 184081" d="M4367.4,611.312l-1.558-1.433.972-.878c.615.6,1.286,1.235,1.931,1.9a.55.55,0,0,1,0,.805c-.645.66-1.315,1.295-1.987,1.951l-.868-.917Z" transform="translate(-4355.365 -600.501)" fill="#12263f"/>
        <path id="Trazado_184082" data-name="Trazado 184082" d="M4325.461,609.191l-1.246-.322,1.288-5.144,1.25.31Z" transform="translate(-4317.099 -595.651)" fill="#12263f"/>
        <path id="Trazado_184083" data-name="Trazado 184083" d="M4276.209,686.875v-1.236h1.253v1.236Z" transform="translate(-4272.969 -670.951)" fill="#12263f"/>
        <path id="Trazado_184084" data-name="Trazado 184084" d="M4276.243,717.482h1.244v1.251h-1.244Z" transform="translate(-4273 -700.222)" fill="#12263f"/>
        <path id="Trazado_184085" data-name="Trazado 184085" d="M4277.6,750.779h-1.239v-1.246h1.239Z" transform="translate(-4273.109 -729.685)" fill="#12263f"/>
        <path id="Trazado_184086" data-name="Trazado 184086" d="M4525.055,750.811h-1.225v-1.254h1.225Z" transform="translate(-4500.595 -729.707)" fill="#12263f"/>
        <path id="Trazado_184087" data-name="Trazado 184087" d="M4556.983,750.811h-1.225v-1.254h1.225Z" transform="translate(-4529.945 -729.707)" fill="#12263f"/>
        <path id="Trazado_184088" data-name="Trazado 184088" d="M4277.525,782.648h-1.236v-1.254h1.236Z" transform="translate(-4273.042 -758.973)" fill="#12263f"/>
        <path id="Trazado_184089" data-name="Trazado 184089" d="M4563.452,782.784v-1.232h1.253v1.232Z" transform="translate(-4537.018 -759.118)" fill="#12263f"/>
        <path id="Trazado_184090" data-name="Trazado 184090" d="M4596.9,782.723h-1.237v-1.244h1.237Z" transform="translate(-4566.623 -759.052)" fill="#12263f"/>
        <path id="Trazado_184091" data-name="Trazado 184091" d="M4523.7,561.307a4.588,4.588,0,1,1-4.57-4.607A4.6,4.6,0,0,1,4523.7,561.307Zm-1.29-.025a3.3,3.3,0,1,0-3.3,3.306A3.309,3.309,0,0,0,4522.411,561.282Z" transform="translate(-4492.041 -552.424)" fill="#12263f"/>
        <path id="Trazado_184092" data-name="Trazado 184092" d="M4437.253,846.589h-1.237v-1.244h1.237Z" transform="translate(-4419.872 -817.76)" fill="#12263f"/>
      </g>
    </g>
  </g>
</svg>
