<svg xmlns="http://www.w3.org/2000/svg" width="55.03" height="58.399" viewBox="0 0 55.03 58.399">
  <g id="Grupo_143178" data-name="Grupo 143178" transform="translate(-727.667 -2206.293)">
    <g id="Rectángulo_37706" data-name="Rectángulo 37706" transform="translate(727.667 2206.293)" fill="#fff" stroke="#afafaf" stroke-width="1">
      <rect width="55.03" height="58.399" rx="10" stroke="none"/>
      <rect x="0.5" y="0.5" width="54.03" height="57.399" rx="9.5" fill="none"/>
    </g>
    <g id="xoKaTD" transform="translate(691.769 351.698)">
      <g id="Grupo_143029" data-name="Grupo 143029" transform="translate(42.944 1862.128)">
        <path id="Trazado_184054" data-name="Trazado 184054" d="M61.378,1904.861c-2.282-.869-2.937-1.969-2.56-4.383l-9.888-5.711a13.47,13.47,0,0,1-2.609.919,3.018,3.018,0,0,1-3.3-2.427,3.1,3.1,0,0,1,1.947-3.63.927.927,0,0,0,.733-1.085c-.025-3.63-.012-7.261-.012-10.929a3.216,3.216,0,0,1-2.714-3.053,2.954,2.954,0,0,1,1.738-3,3.248,3.248,0,0,1,3.959.807c3.261-1.88,6.507-3.746,9.743-5.628.175-.1.414-.366.384-.5-.462-2.119.553-3.35,2.4-4.106H62.46c2.151.89,2.559,1.54,2.548,3.954a.833.833,0,0,0,.344.613c3.257,1.906,6.527,3.788,9.807,5.682a3.274,3.274,0,0,1,3.624-.961,3.053,3.053,0,0,1,2.093,2.948,3.007,3.007,0,0,1-2.028,2.987c-.626.2-.741.5-.737,1.08.024,3.391.014,6.783.009,10.175,0,.429-.025.762.551.941a3.172,3.172,0,0,1,.446,5.856,3.135,3.135,0,0,1-3.535-.438c-.139-.111-.271-.232-.42-.36-3.255,1.877-6.5,3.742-9.735,5.633a.937.937,0,0,0-.418.664c-.014,2.421-.421,3.076-2.549,3.96Zm1.048-36.209c0,1.99-.015,4.087.021,6.183a.99.99,0,0,0,.476.648q2.7,1.613,5.435,3.163a.886.886,0,0,0,.715.089c1.876-1.049,3.731-2.135,5.475-3.143,0-.706.033-1.275-.016-1.837a.971.971,0,0,0-.337-.681c-3.252-1.911-6.521-3.794-9.7-5.634Zm-3.136,30.878a16.709,16.709,0,0,0,1.536-.912,1.194,1.194,0,0,0,.5-.754c.043-1.769.047-3.54,0-5.309a1.249,1.249,0,0,0-.5-.893c-1.867-1.136-3.762-2.227-5.665-3.3a.957.957,0,0,0-.791-.048c-1.751.972-3.479,1.985-5.125,2.936v2.481Zm15.33-8.17c-1.729-.995-3.435-1.995-5.165-2.95a1.046,1.046,0,0,0-.867-.014c-1.935,1.081-3.851,2.2-5.756,3.33a.875.875,0,0,0-.388.614c-.029,2.037-.017,4.074-.017,6l2.068,1.211c2.983-1.724,6.036-3.5,9.107-5.251.657-.374,1.213-.684.94-1.613A4.2,4.2,0,0,1,74.62,1891.359Zm.5-.959c.6-.325,1.144-.573,1.63-.9a.973.973,0,0,0,.379-.685q.036-5.316,0-10.634a.968.968,0,0,0-.353-.7c-.512-.347-1.083-.609-1.692-.938-1.723.995-3.521,2.015-5.293,3.079a1.056,1.056,0,0,0-.435.759q-.053,3.063,0,6.127a1.071,1.071,0,0,0,.409.785C71.564,1888.371,73.388,1889.4,75.122,1890.4Zm-26.565-.018c1.747-1,3.5-1.989,5.216-3.021a1.068,1.068,0,0,0,.43-.773c.035-2.131.031-4.264.005-6.4a1.008,1.008,0,0,0-.33-.745c-1.693-1.065-3.415-2.086-5.034-3.063a7.1,7.1,0,0,1-1.536.957c-.625.188-.67.534-.667,1.062.016,3.213.032,6.426-.008,9.638-.01.839,0,1.521,1.023,1.73C47.953,1889.831,48.2,1890.129,48.558,1890.382Zm10.72-22.915c-3.175,1.834-6.408,3.71-9.652,5.569-.8.457-.106,1.139-.306,1.688-.172.471.082.741.5.986,1.553.9,3.07,1.865,4.624,2.766a1.056,1.056,0,0,0,.871.05q2.814-1.5,5.578-3.088a.959.959,0,0,0,.431-.677c.033-2.066.019-4.132.019-6.1Zm-4.03,12.763c0,2.26-.028,4.33.029,6.4a1.424,1.424,0,0,0,.637.944c1.235.792,2.516,1.513,3.783,2.255.524.307,1.056.6,1.68.953,0-2.266.01-4.365-.015-6.464a.873.873,0,0,0-.341-.634C59.16,1882.544,57.281,1881.439,55.247,1880.231Zm7.175,10.568c1.652-.967,3.136-1.92,4.7-2.72a2.052,2.052,0,0,0,1.278-2.237c-.1-1.779-.028-3.569-.028-5.527-2.015,1.2-3.864,2.3-5.7,3.419a.6.6,0,0,0-.237.435C62.417,1886.322,62.422,1888.477,62.422,1890.8Zm5.133-11.247c-1.819-1.132-3.546-2.214-5.286-3.275a.768.768,0,0,0-.626-.1c-1.835,1.067-3.652,2.165-5.564,3.31,1.892,1.142,3.676,2.23,5.476,3.291a.757.757,0,0,0,.644.029C63.973,1881.753,65.728,1880.669,67.555,1879.552ZM59.762,1865.3a2.114,2.114,0,1,0,4.228.077,2.114,2.114,0,1,0-4.228-.077Zm-11.522,9.142a2.094,2.094,0,1,0-2.134,2.085A2.115,2.115,0,0,0,48.241,1874.44Zm13.6,25.115a2.106,2.106,0,1,0,.074,4.212A2.159,2.159,0,0,0,64,1901.621,2.136,2.136,0,0,0,61.838,1899.555Zm17.946-7.034a2.095,2.095,0,1,0-2.079,2.153A2.115,2.115,0,0,0,79.784,1892.521Zm0-18.087a2.093,2.093,0,1,0-2.146,2.093A2.127,2.127,0,0,0,79.783,1874.434ZM48.236,1892.6a2.091,2.091,0,1,0-2.15,2.076A2.09,2.09,0,0,0,48.236,1892.6Z" transform="translate(-42.944 -1862.128)" fill="#12263f"/>
      </g>
    </g>
  </g>
</svg>
