<svg xmlns="http://www.w3.org/2000/svg" width="55.03" height="58.399" viewBox="0 0 55.03 58.399">
  <g id="Grupo_143179" data-name="Grupo 143179" transform="translate(-200.667 -2282.989)">
    <g id="Rectángulo_37706" data-name="Rectángulo 37706" transform="translate(200.667 2282.989)" fill="#fff" stroke="#afafaf" stroke-width="1">
      <rect width="55.03" height="58.399" rx="10" stroke="none"/>
      <rect x="0.5" y="0.5" width="54.03" height="57.399" rx="9.5" fill="none"/>
    </g>
    <g id="u51aHJ" transform="translate(188.225 545.979)">
      <g id="Grupo_143030" data-name="Grupo 143030" transform="translate(16.875 1747.903)">
        <path id="Trazado_184055" data-name="Trazado 184055" d="M38.507,1785.4H31.1a3.23,3.23,0,0,1-3.327-3.313q-.006-4.992,0-9.983a.347.347,0,0,0-.257-.379q-5.031-2.1-10.057-4.209c-.061-.026-.121-.056-.183-.08a.591.591,0,0,1-.407-.574.6.6,0,0,1,.4-.582l1.831-.8q4.225-1.852,8.452-3.7a.321.321,0,0,0,.22-.355q-.008-5.092,0-10.184a3.248,3.248,0,0,1,3.34-3.332q6.042.005,12.084,0c.942,0,1.884,0,2.826,0a3.24,3.24,0,0,1,3.227,3.238q0,5.129-.007,10.259a.437.437,0,0,0,.317.473q4.974,2.167,9.941,4.349c.254.111.48.242.506.557a.616.616,0,0,1-.465.682q-1.683.707-3.367,1.411-3.355,1.406-6.712,2.808a.3.3,0,0,0-.217.334q.008,5.029,0,10.059a3.237,3.237,0,0,1-3.316,3.324Q42.222,1785.395,38.507,1785.4Zm-19.464-18.556,1.47.618q8.866,3.717,17.735,7.427a.57.57,0,0,0,.394,0c1.1-.45,2.2-.913,3.3-1.374l14.666-6.148c.394-.165.787-.335,1.236-.526l-8.593-3.766v.333q0,1.551,0,3.1c0,.791,0,1.583,0,2.374a.608.608,0,1,1-1.212-.056q0-1.8,0-3.6,0-6.969,0-13.937a2.038,2.038,0,0,0-2.166-2.163q-7.356,0-14.713,0a2.568,2.568,0,0,0-.595.06,2.033,2.033,0,0,0-1.57,2.1q0,7.056,0,14.112c0,.191-.007.383-.007.573,0,.984.007,1.967,0,2.95a.54.54,0,0,1-.347.508.587.587,0,0,1-.616-.062.658.658,0,0,1-.253-.592q.006-2.738,0-5.476c0-.086-.007-.173-.013-.288Zm28.992,5.461c-.137.051-.237.084-.333.124q-4.505,1.886-9.013,3.767a.7.7,0,0,1-.481,0c-.965-.386-1.92-.793-2.879-1.195l-6.063-2.542c-.08-.034-.163-.06-.261-.1-.007.084-.014.133-.014.182,0,3.177-.007,6.354,0,9.53a2.02,2.02,0,0,0,2.123,2.1q7.392.006,14.783,0a2.037,2.037,0,0,0,2.134-2.146q0-4.715,0-9.43Z" transform="translate(-16.875 -1747.903)" fill="#12263f"/>
        <path id="Trazado_184056" data-name="Trazado 184056" d="M343.339,2010.285c0,1.674-.008,3.347.006,5.02a.784.784,0,0,1-.532.827c-1.646.707-3.285,1.432-4.923,2.157a.83.83,0,0,1-.72,0q-2.492-1.1-4.991-2.189a.7.7,0,0,1-.466-.717c.012-1.049.015-2.1.016-3.147q0-1.238-.016-2.476a.686.686,0,0,1,.452-.7q2.51-1.094,5.015-2.2a.805.805,0,0,1,.7,0q2.5,1.1,5.014,2.2a.664.664,0,0,1,.449.677C343.335,2009.918,343.339,2010.1,343.339,2010.285Zm-5.189,6.516a.533.533,0,0,0,.1-.016c1.244-.544,2.488-1.086,3.727-1.64a.324.324,0,0,0,.131-.249c.014-1.032.017-2.065.021-3.1,0-.393,0-.785,0-1.2-.093.026-.125.031-.155.043-1.221.511-2.441,1.025-3.665,1.531-.159.065-.175.167-.175.311,0,1.366,0,2.733,0,4.1C338.137,2016.647,338.144,2016.712,338.15,2016.8Zm-1.255.018a1.21,1.21,0,0,0,.022-.148c0-1.417,0-2.833,0-4.25a.24.24,0,0,0-.185-.251q-1.776-.738-3.549-1.484c-.067-.028-.136-.05-.218-.079a1.2,1.2,0,0,0-.02.142c0,1.392,0,2.783-.005,4.175,0,.165.088.211.208.263q1.58.689,3.159,1.382C336.5,2016.652,336.687,2016.73,336.894,2016.819Zm-3.007-7.172c1.216.51,2.365,1,3.519,1.469a.486.486,0,0,0,.328-.032c1.008-.415,2.013-.839,3.018-1.261.118-.05.234-.1.377-.169a1.028,1.028,0,0,0-.11-.072c-1.12-.492-2.239-.986-3.363-1.469a.432.432,0,0,0-.3.018c-.469.195-.932.4-1.4.607Z" transform="translate(-315.957 -1993.827)" fill="#12263f"/>
        <path id="Trazado_184057" data-name="Trazado 184057" d="M406.277,1797.073c.525,0,1.05,0,1.576,0a.616.616,0,1,1,.016,1.226q-1.6.008-3.2,0a.614.614,0,1,1,.009-1.224c.534,0,1.067,0,1.6,0Z" transform="translate(-384.634 -1794.612)" fill="#12263f"/>
        <path id="Trazado_184058" data-name="Trazado 184058" d="M285.137,1997.809a.612.612,0,1,1-1.224.021.623.623,0,0,1,.616-.625A.615.615,0,0,1,285.137,1997.809Z" transform="translate(-270.549 -1984.729)" fill="#12263f"/>
        <path id="Trazado_184059" data-name="Trazado 184059" d="M488.311,1953.853a.613.613,0,1,1-1.225-.033.613.613,0,1,1,1.225.033Z" transform="translate(-463.555 -1942.947)" fill="#12263f"/>
        <path id="Trazado_184060" data-name="Trazado 184060" d="M335.354,1976.219a.6.6,0,0,1-.623-.61.612.612,0,0,1,1.223-.021A.6.6,0,0,1,335.354,1976.219Z" transform="translate(-318.824 -1963.636)" fill="#12263f"/>
        <path id="Trazado_184061" data-name="Trazado 184061" d="M437.152,1932.225a.592.592,0,0,1-.611-.564.6.6,0,0,1,.594-.657.611.611,0,0,1,.017,1.221Z" transform="translate(-415.539 -1921.841)" fill="#12263f"/>
        <path id="Trazado_184062" data-name="Trazado 184062" d="M589.341,1999.091a.609.609,0,1,1,.607-.6A.6.6,0,0,1,589.341,1999.091Z" transform="translate(-560.11 -1985.364)" fill="#12263f"/>
        <path id="Trazado_184063" data-name="Trazado 184063" d="M555.763,1797.715a.608.608,0,1,1-.6-.609A.608.608,0,0,1,555.763,1797.715Z" transform="translate(-527.64 -1794.643)" fill="#12263f"/>
        <path id="Trazado_184064" data-name="Trazado 184064" d="M386.193,1954.018a.608.608,0,1,1,.619-.587A.6.6,0,0,1,386.193,1954.018Z" transform="translate(-367.142 -1942.548)" fill="#12263f"/>
        <path id="Trazado_184065" data-name="Trazado 184065" d="M538.475,1976.787a.611.611,0,1,1,.617-.62A.616.616,0,0,1,538.475,1976.787Z" transform="translate(-511.791 -1964.173)" fill="#12263f"/>
        <path id="Trazado_184066" data-name="Trazado 184066" d="M406.342,2421.574c.517,0,1.034,0,1.55,0,.432,0,.7.234.713.6s-.279.622-.717.622c-1.059,0-2.117,0-3.176,0a.591.591,0,0,1-.612-.453.579.579,0,0,1,.263-.669.851.851,0,0,1,.38-.094c.533-.01,1.067,0,1.6,0Z" transform="translate(-384.7 -2387.861)" fill="#12263f"/>
      </g>
    </g>
  </g>
</svg>
