<svg xmlns="http://www.w3.org/2000/svg" width="55.03" height="58.399" viewBox="0 0 55.03 58.399">
  <g id="Grupo_143180" data-name="Grupo 143180" transform="translate(-461.667 -2282.989)">
    <g id="Rectángulo_37706" data-name="Rectángulo 37706" transform="translate(461.667 2282.989)" fill="#fff" stroke="#afafaf" stroke-width="1">
      <rect width="55.03" height="58.399" rx="10" stroke="none"/>
      <rect x="0.5" y="0.5" width="54.03" height="57.399" rx="9.5" fill="none"/>
    </g>
    <g id="pVEkCd" transform="translate(-490.426 332.482)">
      <g id="Grupo_143031" data-name="Grupo 143031" transform="translate(962.23 1956.383)">
        <path id="Trazado_184067" data-name="Trazado 184067" d="M962.263,1970.937h12.621c0-1.1.01-2.16-.015-3.215,0-.114-.194-.259-.33-.327-.559-.282-1.12-.569-1.7-.8a.881.881,0,0,1-.66-1.019c.055-.62.013-1.249.013-1.941-.241-.012-.442-.03-.642-.031-.97,0-1.939-.015-2.909,0a2.134,2.134,0,0,1-2.213-2.388,2.07,2.07,0,0,1,2.227-2.124h3.527v-2.712h13.131c0,.722.024,1.438-.009,2.151-.021.458.138.587.588.572,1.006-.033,2.015-.014,3.022-.01a2.06,2.06,0,0,1,2.163,2.075,2.124,2.124,0,0,1-2.107,2.433h-3.657c0,.763-.017,1.479.007,2.193a.63.63,0,0,1-.437.695q-.971.409-1.908.893a.658.658,0,0,0-.339.435c-.033.873-.018,1.748-.016,2.623,0,.131.017.263.032.464h12.6c.011.249.027.43.027.611q0,13.887,0,27.775a2.688,2.688,0,0,1-2.912,2.912q-13.66.009-27.319,0a2.673,2.673,0,0,1-2.808-2.788q-.009-14,0-28C962.232,1971.287,962.248,1971.157,962.263,1970.937Zm17.3,11.112q.005.116.01.231c.2.1.39.212.587.313q2.766,1.411,5.533,2.818a1.929,1.929,0,0,1,1.141,1.874q-.016,4.048,0,8.1a1.871,1.871,0,0,1-1.056,1.811q-3.092,1.587-6.2,3.151a1.741,1.741,0,0,1-1.645.013c-2.1-1.066-4.2-2.126-6.292-3.21a1.772,1.772,0,0,1-.976-1.683q0-4.134,0-8.268a1.81,1.81,0,0,1,1.012-1.72c2.09-1.084,4.2-2.136,6.291-3.214a1.744,1.744,0,0,0,.582-.484,2.261,2.261,0,0,1,1.885-1c.779,0,1.559,0,2.338,0a1.159,1.159,0,1,0,.019-2.3c-.76-.01-1.521,0-2.281,0a2.2,2.2,0,0,1-2.313-2.11.891.891,0,0,0-.391-.583c-.808-.459-1.64-.878-2.475-1.289a.68.68,0,0,1-.459-.74c.039-.579.01-1.163.01-1.766H963.279c-.014.217-.037.4-.037.585,0,1.426.022,2.852-.012,4.276-.013.521.167.627.654.624,3.288-.021,6.577-.01,9.865-.01h.6v1.013h-.662c-3.269,0-6.539.011-9.808-.009-.493,0-.647.118-.646.63.017,6.71.01,13.419.013,20.129a1.752,1.752,0,0,0,1.966,1.968q13.571,0,27.143,0a1.72,1.72,0,0,0,1.905-1.855c.007-6.767,0-13.533.014-20.3,0-.465-.155-.578-.592-.574-2.186.018-4.372.008-6.558.008-.872,0-.915-.059-.693-1.013h.545c2.2,0,4.41-.019,6.615.013.564.008.7-.173.688-.709-.035-1.387-.01-2.775-.013-4.162,0-.2-.02-.4-.032-.614H982.618c0,.6-.027,1.167.009,1.73a.715.715,0,0,1-.483.784c-.805.384-1.591.808-2.386,1.213-.546.279-.711.71-.315,1.168a1.738,1.738,0,0,0,1.04.552c.809.082,1.632.017,2.449.028a2.16,2.16,0,1,1,.027,4.32c-.779.019-1.56-.02-2.337.018A5.886,5.886,0,0,0,979.567,1982.049Zm-6.25-24.661c-.035.08-.062.114-.062.148-.006,2.6-.018,5.2,0,7.8a.7.7,0,0,0,.374.465c1.568.765,3.144,1.515,4.731,2.239a.988.988,0,0,0,.728-.007c1.574-.708,3.126-1.465,4.7-2.169a.711.711,0,0,0,.485-.773c-.015-2.373-.007-4.746-.009-7.119,0-.184-.02-.368-.032-.584Zm5.983,41.934c.189-.084.293-.124.392-.175,1.794-.913,3.58-1.841,5.384-2.733a1.189,1.189,0,0,0,.749-1.2c-.019-2.451-.007-4.9-.008-7.353,0-.2-.022-.394-.04-.689-.392.195-.694.342-.993.495-1.675.852-3.344,1.718-5.03,2.547a.743.743,0,0,0-.486.779c.015,2.641.007,5.282.008,7.923C979.275,1999.021,979.288,1999.131,979.3,1999.322Zm-7.538-12.142a2.1,2.1,0,0,0-.066.314q0,3.959,0,7.918a.972.972,0,0,0,.616.933c1.426.712,2.841,1.445,4.261,2.168.517.263,1.038.518,1.573.785a.828.828,0,0,0,.08-.207c0-2.772.008-5.545-.014-8.317a.705.705,0,0,0-.352-.484c-1.275-.672-2.566-1.315-3.851-1.968C973.281,1987.956,972.558,1987.586,971.761,1987.181Zm.6-.9c.225.134.364.228.512.3,1.724.879,3.457,1.74,5.168,2.642a1.408,1.408,0,0,0,1.445-.005c1.513-.793,3.041-1.556,4.561-2.335.346-.177.684-.37,1.112-.6l-5.912-3c0,.826,0,1.52,0,2.214,0,.829-.142.921-1.058.633v-2.812Zm3.546-18.249c0,1.865-.009,3.591.016,5.317a.684.684,0,0,0,.346.443c.7.389,1.4.767,2.124,1.1a.974.974,0,0,0,.719-.016c.691-.311,1.349-.7,2.036-1.018a.7.7,0,0,0,.464-.742c-.022-1.311-.008-2.622-.008-3.933v-1.164c-.835.39-1.569.691-2.26,1.071a1.213,1.213,0,0,1-1.27-.019C977.4,1968.722,976.713,1968.417,975.907,1968.034Zm9.445-7.924v2.411a1.9,1.9,0,0,0,.209.028c1.117,0,2.234.01,3.352,0,.766-.005,1.129-.387,1.142-1.167.014-.817-.345-1.254-1.11-1.269C987.771,1960.094,986.6,1960.11,985.351,1960.11Zm-13.2,0c-1.281,0-2.5-.021-3.708.009a1,1,0,0,0-1,1.094c-.03.754.242,1.274.812,1.3,1.282.049,2.568.015,3.891.015Z" transform="translate(-962.23 -1956.383)" fill="#12263f"/>
      </g>
    </g>
  </g>
</svg>
