<svg xmlns="http://www.w3.org/2000/svg" width="55.03" height="58.399" viewBox="0 0 55.03 58.399">
  <g id="Grupo_143181" data-name="Grupo 143181" transform="translate(-727.667 -2282.989)">
    <g id="Rectángulo_37706" data-name="Rectángulo 37706" transform="translate(727.667 2282.989)" fill="#fff" stroke="#afafaf" stroke-width="1">
      <rect width="55.03" height="58.399" rx="10" stroke="none"/>
      <rect x="0.5" y="0.5" width="54.03" height="57.399" rx="9.5" fill="none"/>
    </g>
    <g id="cBpRW6" transform="translate(-4219.851 1437.99)">
      <g id="Grupo_143032" data-name="Grupo 143032" transform="translate(4955.523 852.734)">
        <path id="Trazado_184068" data-name="Trazado 184068" d="M4961.794,861.6a9.368,9.368,0,0,1,2.274-5.711,9.15,9.15,0,0,1,14.3.589,1.036,1.036,0,0,0,.953.487,7.955,7.955,0,0,1,7.293,4.234,1.307,1.307,0,0,0,.735.574,6.941,6.941,0,0,1,5.385,6.964,6.863,6.863,0,0,1-6.127,6.608c-.29.034-.578.077-.964.128,0,.465-.019.922,0,1.377.031.612-.219.96-.849.889-.555-.063-.794.158-.892.687a3.6,3.6,0,0,1-.37.952c-.334.656-.737,1.279.129,1.88.107.074.046.633-.113.806-.811.883-1.678,1.715-2.529,2.561a.666.666,0,0,1-1.123-.085c-.335-.438-.647-.41-1.112-.162-.662.353-1.386.589-2.1.88-.18,1.4-.18,1.4-1.925,1.54v3.265c.036.025.074.074.112.074,1.518.03,1.492-.1,1.483,1.585,0,.71-.016,1.421,0,2.131.016.556-.233.821-.781.821-.955,0-1.91,0-2.865,0-.576,0-.851-.244-.836-.844.022-.906,0-1.812.008-2.719.006-.862.094-.942.99-.955.191,0,.382-.016.612-.027v-3.323c-.524-.047-1.139.068-1.5-.184-.323-.228-.365-.855-.566-1.4-.677-.3-1.489-.68-2.327-.993a.841.841,0,0,0-.648.237c-.64.563-.8.579-1.4-.017-.7-.689-1.387-1.384-2.079-2.077-.739-.741-.738-.815.007-1.593.083-.087.159-.181.211-.24-.33-.853-.62-1.68-.98-2.475a.789.789,0,0,0-.627-.3c-.727.022-1.042-.272-.982-1,.034-.41.006-.826.006-1.314a7.1,7.1,0,0,1-5.691-2.778,6.65,6.65,0,0,1-1.4-4.239A6.977,6.977,0,0,1,4961.794,861.6Zm23.846,12.606a12,12,0,0,0,1.412-.149,5.625,5.625,0,0,0,4.451-5.69,5.55,5.55,0,0,0-4.727-5.439,1.355,1.355,0,0,1-1.119-.869,6.61,6.61,0,0,0-6.809-3.832.991.991,0,0,1-1.094-.5,7.948,7.948,0,0,0-14.726,4.091c-.023.7-.211.987-.962,1.024a5.671,5.671,0,0,0-1,11.17,12.376,12.376,0,0,0,1.473.188c.16-1.232.162-1.225,1.375-1.539a.589.589,0,0,0,.328-.32c.333-.805.642-1.62.97-2.461-.078-.083-.176-.191-.278-.3-.675-.693-.675-.787.016-1.48.587-.59,1.182-1.173,1.765-1.767.962-.979,1.008-1.138,2.077-.058.03.031.087.034.049.02.76-.313,1.444-.644,2.162-.871.471-.149.7-.338.628-.86-.063-.455.051-.857.625-.862,1.249-.01,2.5-.03,3.745.022.219.009.625.384.6.536-.14.888.376,1.1,1.069,1.3a14.528,14.528,0,0,1,1.754.761c.1-.093.209-.189.313-.29.7-.676.836-.674,1.544.034l1.766,1.766c.975.974.975.974.039,2.01a.233.233,0,0,0-.04.1,20.292,20.292,0,0,1,.873,2.119c.148.5.366.674.865.619.575-.062.878.214.859.81C4985.635,873.687,4985.64,873.879,4985.64,874.208ZM4966,868.891c.745.892.71.875.164,1.989a14.136,14.136,0,0,0-.854,2.247c-.155.529-.385.817-.96.764a2.219,2.219,0,0,0-.483.06v2.593c1.029-.244,1.362.3,1.551,1.173a7.767,7.767,0,0,0,.733,1.826c.562,1.1.583,1.092-.159,2.008l1.774,1.826c.928-.778.918-.759,1.991-.2a8.224,8.224,0,0,0,1.751.728c.857.214,1.6.429,1.262,1.594h2.625c.146-1.224.158-1.192.66-1.391,1.016-.4,2.007-.871,3.032-1.249a1.5,1.5,0,0,1,.9.107c.188.065.322.283.49.443l1.8-1.846c-.762-.911-.743-.9-.172-2.019a8.314,8.314,0,0,0,.71-1.758c.208-.845.461-1.528,1.559-1.239v-2.688c-1.129.306-1.336-.4-1.572-1.226a10.5,10.5,0,0,0-.974-2.2.84.84,0,0,1,.158-1.22,1.948,1.948,0,0,0,.258-.312l-1.763-1.857c-.461.312-.734.938-1.5.525-.936-.5-1.978-.8-2.945-1.252a1.5,1.5,0,0,1-.568-.713,1.767,1.767,0,0,1-.016-.676h-2.707c.394,1.191-.364,1.392-1.228,1.6a5.517,5.517,0,0,0-1.681.7c-.766.492-1.441.8-2.026-.233Zm7.153,22.467V893.4h1.952v-2.045Z" transform="translate(-4955.523 -852.734)" fill="#12263f"/>
        <path id="Trazado_184069" data-name="Trazado 184069" d="M5156.969,1059.553c-1.253,0-2.47-.007-3.687,0-.45,0-.9-.04-.9-.6s.447-.606.9-.6c1.346.011,2.692.021,4.038,0,.675-.012.9.288.9.933-.02,2.053-.007,4.107-.007,6.133.068.059.1.116.14.116,1.729-.036,1.479.182,1.49,1.649.006.685-.019,1.371.007,2.055.022.607-.271.841-.84.837-.93-.006-1.86-.013-2.79,0-.625.01-.886-.285-.875-.9.015-.856,0-1.713,0-2.569,0-.935.113-1.041,1.053-1.055.17,0,.34-.015.565-.025Zm1.635,9.254v-2.03h-1.969v2.03Z" transform="translate(-5123.449 -1028.132)" fill="#12263f"/>
        <path id="Trazado_184070" data-name="Trazado 184070" d="M4967.593,1059.575c0,1.883,0,3.665,0,5.447,0,.166.015.333.022.487,1.617.225,1.617.225,1.617,1.895,0,.636-.014,1.272,0,1.908a.663.663,0,0,1-.739.783q-1.5.012-3.008,0c-.514,0-.743-.279-.738-.791.01-.905,0-1.81,0-2.715s.1-.989,1.017-1.006c.189,0,.378-.021.637-.036v-5.89c0-1.272,0-1.272,1.264-1.272,1.248,0,2.495.007,3.742,0,.453,0,.8.133.795.635-.009.472-.363.567-.776.564C4970.189,1059.569,4968.945,1059.575,4967.593,1059.575Zm-1.569,7.227v2.022h1.954V1066.8Z" transform="translate(-4963.396 -1028.155)" fill="#12263f"/>
        <path id="Trazado_184071" data-name="Trazado 184071" d="M5024.552,872.632a8.06,8.06,0,0,1,3.84,1.085c.4.236.708.532.414.995-.277.437-.675.261-1.032.049a6.056,6.056,0,0,0-4.447-.781c-2.312.482-3.6,2.114-3.928,4.857-.051.431-.06.908-.636.87-.6-.039-.612-.525-.58-.993A6.241,6.241,0,0,1,5024.552,872.632Z" transform="translate(-5008.964 -869.707)" fill="#12263f"/>
        <path id="Trazado_184072" data-name="Trazado 184072" d="M5040.126,969.771a6.011,6.011,0,0,0,5.954-5.787c.023-.468.139-.889.669-.853.55.038.556.51.539.952a7.245,7.245,0,0,1-14.479-.584,7.208,7.208,0,0,1,6.991-7.011,1.078,1.078,0,0,1,.779.37c.256.384-.089.753-.694.8a5.984,5.984,0,0,0-5.268,3.424A6.044,6.044,0,0,0,5040.126,969.771Z" transform="translate(-5021.447 -941.237)" fill="#12263f"/>
        <path id="Trazado_184073" data-name="Trazado 184073" d="M5064.377,984.128a3.657,3.657,0,0,1-3.353,3.7c-.419.042-.834.03-.907-.486-.079-.564.332-.673.788-.727a2.459,2.459,0,0,0,2.285-2.43,2.5,2.5,0,0,0-4.984-.29c-.053.464-.117.87-.683.818-.6-.054-.532-.539-.507-.957a3.689,3.689,0,0,1,7.36.369Z" transform="translate(-5042.087 -961.666)" fill="#12263f"/>
      </g>
    </g>
  </g>
</svg>
