<svg id="Grupo_143136" data-name="Grupo 143136" xmlns="http://www.w3.org/2000/svg" xmlns:xlink="http://www.w3.org/1999/xlink" width="114.636" height="114.636" viewBox="0 0 114.636 114.636">
  <defs>
    <radialGradient id="radial-gradient" cx="0.076" cy="0.019" r="1.465" gradientTransform="translate(0.001)" gradientUnits="objectBoundingBox">
      <stop offset="0" stop-color="#f6f6f7"/>
      <stop offset="0.477" stop-color="#f9f9fa"/>
      <stop offset="0.715" stop-color="#fff"/>
    </radialGradient>
  </defs>
  <g id="Grupo_18423" data-name="Grupo 18423" transform="translate(0 0)">
    <g id="Grupo_18421" data-name="Grupo 18421">
      <g id="Grupo_18420" data-name="Grupo 18420">
        <g id="Grupo_18419" data-name="Grupo 18419">
          <path id="Trazado_40936" data-name="Trazado 40936" d="M309.259,2203.037a57.318,57.318,0,1,1-57.317-57.316A57.317,57.317,0,0,1,309.259,2203.037Z" transform="translate(-194.623 -2145.721)" fill="#fff"/>
        </g>
      </g>
    </g>
    <path id="Trazado_40937" data-name="Trazado 40937" d="M308.648,2202.372a57.316,57.316,0,1,0-57.317,57.319A57.091,57.091,0,0,0,308.648,2202.372Z" transform="translate(-194.013 -2145.056)" fill="url(#radial-gradient)"/>
    <path id="Trazado_40938" data-name="Trazado 40938" d="M289.672,2196.986a43.75,43.75,0,1,0-43.75,43.75A43.587,43.587,0,0,0,289.672,2196.986Z" transform="translate(-188.43 -2139.479)" fill="none" stroke="#00223d" stroke-miterlimit="10" stroke-width="4"/>
    <g id="Grupo_18422" data-name="Grupo 18422" transform="translate(10.154 32.18)">
      <path id="Trazado_40939" data-name="Trazado 40939" d="M299.231,2164.488a57.325,57.325,0,0,1-98.686,57.081,57.143,57.143,0,0,0,98.686-57.081Z" transform="translate(-200.545 -2164.488)" fill="#eceef0"/>
    </g>
  </g>
  <g id="JQusRI.tif" transform="translate(-4192.147 938.219)">
    <g id="Grupo_143116" data-name="Grupo 143116" transform="translate(4227.505 -904.422)">
      <path id="Trazado_184317" data-name="Trazado 184317" d="M4229.834-856.878c-.144-.052-.287-.1-.432-.155a2.745,2.745,0,0,1-1.883-2.559c-.018-1.594-.021-3.188,0-4.781a2.764,2.764,0,0,1,2.74-2.716c.46-.01.921,0,1.406,0v-27.087c-.121-.009-.253-.025-.385-.026-.913,0-1.826.005-2.738,0a.925.925,0,0,1-1.026-1q-.01-4.108,0-8.216a.912.912,0,0,1,.982-.993q4.13-.011,8.261,0a.9.9,0,0,1,.959.968q.013,4.131,0,8.263a.917.917,0,0,1-1,.975c-1.035.01-2.07,0-3.15,0-.008.17-.021.318-.021.466,0,2.522-.014,5.044,0,7.566a23.068,23.068,0,0,0,5.677,15.13c.049.058.09.124.178.244.085-.187.142-.3.189-.42q1.756-4.413,3.518-8.824a2.471,2.471,0,0,1,.509-.811q11.163-11.188,22.343-22.358a3.7,3.7,0,0,1,4.93-.484,5.756,5.756,0,0,1,.625.553c.551.542,1.08,1.109,1.646,1.636a5.566,5.566,0,0,1,1.878,2.845v1.114a4.83,4.83,0,0,1-1.291,2.309q-11.1,11.08-22.194,22.176a2.721,2.721,0,0,1-.875.578c-2.917,1.187-5.844,2.354-8.767,3.527-.133.053-.264.111-.409.172a1.191,1.191,0,0,0,.094.131c.092.083.184.166.279.245a23.015,23.015,0,0,0,15.053,5.495c2.475.012,4.95,0,7.425,0,.148,0,.3-.013.474-.022,0-1.01,0-1.982,0-2.955,0-.894.306-1.2,1.2-1.2,2.583,0,5.167.013,7.75-.01a1.259,1.259,0,0,1,1.262.66v9.564h-9.562a1.21,1.21,0,0,1-.658-1.262c.037-.57.008-1.144.008-1.716v-1.163h-27.109c0,.5.015.965,0,1.428a2.6,2.6,0,0,1-1.117,2.138,7.883,7.883,0,0,1-1.2.575Zm17.538-21.284,15.3-15.306-1.843-1.854-15.307,15.308Zm16.8-13.858-15.333,15.335,1.8,1.794,15.334-15.339Zm-30.612,24.937c1.207-.018,2.4-.138,3.344.8.964.949.824,2.162.824,3.348h9.5a25.6,25.6,0,0,1-13.666-13.827Zm-4.166-29.009h6.441v-6.443h-6.441Zm43.762,37.338V-865.2h-6.44v6.442Zm-37.285-3.218c0-.757.009-1.514,0-2.271a.917.917,0,0,0-.987-.986q-2.247-.015-4.494,0a.926.926,0,0,0-1.01,1.011q-.013,2.224,0,4.449a.932.932,0,0,0,1.034,1.035q2.2.011,4.4,0a.945.945,0,0,0,1.058-1.059C4235.874-860.522,4235.868-861.248,4235.868-861.974ZM4263.525-898l-1.306,1.258,5.245,5.255c.312-.343.621-.707.957-1.045.184-.185.257-.323.108-.588a.819.819,0,0,1,.155-.987.889.889,0,0,1,.933-.261,1.7,1.7,0,0,1,.338.148l1.246-1.206-5.213-5.211c-.316.324-.679.684-1.024,1.058a.359.359,0,0,0-.089.306.915.915,0,0,1-.156,1.223A.916.916,0,0,1,4263.525-898Zm-19.11,19.7c-.309.78-.614,1.585-.948,2.378a.464.464,0,0,0,.127.6q1.25,1.21,2.468,2.454a.451.451,0,0,0,.606.1c.417-.2.85-.369,1.275-.553.346-.15.691-.3,1.012-.445Zm28.253-18.551a1.668,1.668,0,0,0,.143-2.31c-.954-1.053-1.963-2.062-3.013-3.019a1.633,1.633,0,0,0-2.308.143Zm-31.255,26.1,2.915-1.089-1.764-1.787Z" transform="translate(-4227.505 904.422)" fill="#12263f"/>
      <path id="Trazado_184318" data-name="Trazado 184318" d="M4641.252-823.983a.907.907,0,0,1-.907.917.906.906,0,0,1-.928-.941.906.906,0,0,1,.929-.893A.907.907,0,0,1,4641.252-823.983Z" transform="translate(-4601.104 832.296)" fill="#12263f"/>
    </g>
  </g>
</svg>
